<svg enable-background="new 0 0 512 512" version="1.1" viewBox="0 0 512 512" xml:space="preserve" xmlns="http://www.w3.org/2000/svg"><g transform="rotate(-25 256 256)" opacity=".1"><path d="m219.81 184c6.006 4.96 10.52 11.083 13.619 18.381h45.138c3.099-7.297 7.614-13.42 13.619-18.381 4.147-3.426 8.991-6.308 14.548-8.66 16.766-7.092 40.099-9.268 71.423-9.721h-244.32c31.325 0.453 54.658 2.628 71.423 9.721 5.558 2.352 10.402 5.234 14.548 8.66z" fill="#f55"/><path d="m273.99 239.14h-35.986c-0.668 6.029-2.008 12.195-3.975 18.381-1.957 6.149-4.53 12.314-7.666 18.381h59.268c-3.136-6.067-5.709-12.232-7.666-18.381-1.967-6.186-3.308-12.352-3.975-18.381z" fill="#ff6363"/></g><g><path d="m39.312 305.02-18.595 8.6709c-9.1999 4.29-13.181 15.226-8.8911 24.426 4.29 9.1999 15.227 13.181 24.427 8.8907l9.8217-4.5799c-2.2823-6.0823-3.9713-12.056-5.1036-17.901-1.2989-6.6898-1.8413-13.203-1.6592-19.506z" fill="#00313c" opacity=".1"/><path d="m451.43 112.85-18.593 8.67c4.9453 3.9137 9.5856 8.5147 13.878 13.81 3.7475 4.6245 7.2373 9.7587 10.433 15.416l9.8198-4.5791c9.1999-4.29 13.181-15.227 8.8907-24.427s-15.228-13.18-24.428-8.8903z" fill="#00313c" opacity=".1"/><path d="m232.57 248.33c-0.93829-2.7788-2.0026-5.4658-3.2011-8.0361-4.5799-9.8217-10.063-17.57-16.483-23.346-5.8925-5.3036-12.571-8.9453-20.111-10.903-5.2064-1.3524-10.814-1.9172-16.845-1.7004-18.192 0.65808-40.259 8.5469-68.84 21.374-4.3826 1.9664-8.905 4.0399-13.605 6.2316-34.69 16.176-53.282 42.059-54.174 73.071-0.18165 6.3044 0.36026 12.817 1.6578 19.508 1.1328 5.8438 2.8227 11.817 5.1036 17.901 1.1863 3.1663 2.5297 6.362 4.0321 9.5839 21.085 45.217 74.853 64.931 119.86 43.946 28.385-13.236 49.984-38.865 60.818-72.17 4.0311-12.386 6.2791-25.04 6.773-37.222 0.27816-6.8239 5e-3 -13.499-0.82039-19.899-0.82889-6.439-2.2194-12.594-4.1628-18.34z" fill="#1ad5ff" opacity=".1"/><path d="m432.84 121.52c-24.33-19.252-56.108-21.646-90.799-5.4693-4.6992 2.1913-9.1955 4.3232-13.519 6.4165-28.199 13.649-48.426 25.481-60.623 38.995-4.0432 4.4783-7.2145 9.1393-9.5251 13.997-3.3453 7.0327-4.8505 14.491-4.5749 22.414 0.29837 8.6305 2.7094 17.812 7.2894 27.633 1.199 2.5712 2.5746 5.1119 4.0984 7.6177 3.153 5.1809 6.9737 10.204 11.371 14.979 4.3723 4.7458 9.3097 9.2458 14.716 13.419 9.6504 7.454 20.789 13.863 32.867 18.737 32.477 13.107 65.994 13.037 94.379-0.19872 45.005-20.986 64.465-74.845 43.379-120.06-1.502-3.221-3.0874-6.3038-4.749-9.2496-3.195-5.6567-6.6857-10.791-10.433-15.416-4.2915-5.2966-8.9331-9.8981-13.877-13.811z" fill="#1ad5ff" opacity=".1"/><path d="m93.485 231.95c-34.69 16.176-53.282 42.059-54.174 73.071-0.18165 6.3044 0.36026 12.817 1.6578 19.508 1.1328 5.8438 2.8227 11.817 5.1054 17.9 1.1863 3.1663 2.5297 6.362 4.0321 9.5839 21.085 45.217 74.853 64.931 119.86 43.946 4.4336-2.0674 8.7002-4.4365 12.787-7.0906l-76.006-162.99c-4.2753 1.9219-8.6836 3.9422-13.26 6.0764z" fill="#00b4dc" opacity=".1"/><path d="m328.52 122.46c-28.199 13.649-48.427 25.482-60.623 38.995-4.0432 4.4783-7.2145 9.1393-9.5251 13.997-3.3453 7.0327-4.8505 14.491-4.5749 22.414 0.29837 8.6305 2.7094 17.812 7.2893 27.633 1.199 2.5712 2.5746 5.1119 4.0984 7.6177 3.153 5.1809 6.9737 10.204 11.371 14.979 4.3723 4.7458 9.3097 9.2458 14.716 13.419 9.6503 7.454 20.789 13.863 32.867 18.737 27.406 11.06 55.55 12.737 80.728 5.0389l-76.006-163c-0.11244 0.0546-0.22803 0.10964-0.34047 0.16428z" fill="#00b4dc" opacity=".1"/></g></svg>
